<svg width="22" height="22" viewBox="0 0 22 22" fill="none" xmlns="http://www.w3.org/2000/svg">
<path d="M20.0087 8.92969L21.0989 9.97031C21.5605 10.4109 21.5605 11.1234 21.0989 11.5594L11.5574 20.6719C11.0958 21.1125 10.3493 21.1125 9.89264 20.6719L0.346205 11.5594C-0.115402 11.1187 -0.115402 10.4062 0.346205 9.97031L1.43638 8.92969C1.9029 8.48437 2.66406 8.49375 3.12076 8.94844L8.75826 14.5969V1.125C8.75826 0.501562 9.28371 0 9.93683 0H11.5083C12.1614 0 12.6868 0.501562 12.6868 1.125V14.5969L18.3243 8.94844C18.781 8.48906 19.5422 8.47969 20.0087 8.92969Z" fill="#00BFA6"/>
</svg>
